<?xml version="1.0" encoding="utf-8"?>
<!-- Generator: Adobe Illustrator 16.0.0, SVG Export Plug-In . SVG Version: 6.00 Build 0)  -->
<!DOCTYPE svg PUBLIC "-//W3C//DTD SVG 1.1//EN" "http://www.w3.org/Graphics/SVG/1.1/DTD/svg11.dtd">
<svg version="1.1" id="Layer_1" xmlns="http://www.w3.org/2000/svg" xmlns:xlink="http://www.w3.org/1999/xlink" x="0px" y="0px"
	 width="12.5px" height="10.328px" viewBox="0 0 12.5 10.328" enable-background="new 0 0 12.5 10.328" xml:space="preserve">
<g>
	<path d="M12.318,5.563L7.09,0.397C6.879,0.177,6.636,0.05,6.381,0.016C6.339,0.006,6.295,0,6.25,0C6.205,0,6.161,0.006,6.119,0.016
		C5.865,0.049,5.623,0.174,5.424,0.384L0.182,5.563C-0.058,5.8-0.061,6.188,0.176,6.428c0.12,0.121,0.277,0.182,0.435,0.182
		c0.156,0,0.311-0.059,0.431-0.176L6.25,1.288l5.208,5.146c0.12,0.117,0.274,0.176,0.43,0.176c0.157,0,0.315-0.061,0.437-0.182
		C12.561,6.188,12.559,5.8,12.318,5.563z" fill="#fff"/>
	<path d="M9.732,5.348c-0.338,0-0.611,0.273-0.611,0.612v3.144H3.379V5.96c0-0.339-0.273-0.612-0.612-0.612
		c-0.338,0-0.612,0.273-0.612,0.612v3.487c0,0.485,0.395,0.881,0.88,0.881h6.43c0.484,0,0.88-0.396,0.88-0.881V5.96
		C10.345,5.621,10.07,5.348,9.732,5.348z" fill="#fff"/>
</g>
</svg>
