<?xml version="1.0" encoding="utf-8"?>
<!-- Generator: Adobe Illustrator 16.0.0, SVG Export Plug-In . SVG Version: 6.00 Build 0)  -->
<!DOCTYPE svg PUBLIC "-//W3C//DTD SVG 1.1//EN" "http://www.w3.org/Graphics/SVG/1.1/DTD/svg11.dtd">
<svg version="1.1" id="Layer_1" xmlns="http://www.w3.org/2000/svg" xmlns:xlink="http://www.w3.org/1999/xlink" x="0px" y="0px"
	 width="29px" height="28.998px" viewBox="0 0 29 28.998" enable-background="new 0 0 29 28.998" xml:space="preserve">
<path fill="#424242" d="M28.638,26.889l-5.658-5.658c1.854-2.244,2.972-5.121,2.972-8.254C25.951,5.821,20.131,0,12.976,0
	C5.821,0,0,5.821,0,12.977c0,7.152,5.821,12.975,12.976,12.975c3.133,0,6.01-1.117,8.254-2.973l5.659,5.658
	c0.24,0.242,0.558,0.361,0.874,0.361s0.633-0.119,0.875-0.361C29.121,28.154,29.121,27.371,28.638,26.889z M2.227,12.977
	c0-5.938,4.813-10.75,10.749-10.75c5.936,0,10.749,4.813,10.749,10.75c0,5.936-4.813,10.748-10.749,10.748
	C7.039,23.725,2.227,18.912,2.227,12.977z"/>
</svg>
