<?xml version="1.0" encoding="utf-8"?>
<!-- Generator: Adobe Illustrator 16.0.0, SVG Export Plug-In . SVG Version: 6.00 Build 0)  -->
<!DOCTYPE svg PUBLIC "-//W3C//DTD SVG 1.1//EN" "http://www.w3.org/Graphics/SVG/1.1/DTD/svg11.dtd">
<svg version="1.1" id="Layer_1" xmlns="http://www.w3.org/2000/svg" xmlns:xlink="http://www.w3.org/1999/xlink" x="0px" y="0px"
	 width="20.135px" height="18px" viewBox="0 0 20.135 18" enable-background="new 0 0 20.135 18" xml:space="preserve">
<g>
	<path fill="#474747" d="M17.486,10.052h-0.53V2.649c0-1.46-1.188-2.649-2.649-2.649H5.828c-1.46,0-2.649,1.189-2.649,2.649v7.402
		h-0.53c-1.46,0-2.649,1.189-2.649,2.65v2.648C0,16.812,1.188,18,2.649,18h14.837c1.46,0,2.648-1.188,2.648-2.649v-2.648
		C20.135,11.241,18.946,10.052,17.486,10.052z M4.239,2.649c0-0.876,0.713-1.589,1.589-1.589h8.479c0.877,0,1.59,0.713,1.59,1.589
		v7.402H4.239V2.649z M19.075,15.351c0,0.877-0.713,1.59-1.589,1.59H2.649c-0.876,0-1.589-0.713-1.589-1.59v-2.648
		c0-0.877,0.713-1.59,1.589-1.59h14.837c0.876,0,1.589,0.713,1.589,1.59V15.351z"/>
	<rect x="6.029" y="2.467" fill="#474747" width="8.078" height="1.06"/>
	<rect x="6.029" y="4.991" fill="#474747" width="8.078" height="1.059"/>
	<rect x="6.029" y="7.515" fill="#474747" width="8.078" height="1.061"/>
</g>
</svg>
