<?xml version="1.0" encoding="utf-8"?>
<!-- Generator: Adobe Illustrator 16.0.0, SVG Export Plug-In . SVG Version: 6.00 Build 0)  -->
<!DOCTYPE svg PUBLIC "-//W3C//DTD SVG 1.1//EN" "http://www.w3.org/Graphics/SVG/1.1/DTD/svg11.dtd">
<svg version="1.1" id="Layer_1" xmlns="http://www.w3.org/2000/svg" xmlns:xlink="http://www.w3.org/1999/xlink" x="0px" y="0px"
	 width="15px" height="16.514px" viewBox="0 0 15 16.514" enable-background="new 0 0 15 16.514" xml:space="preserve">
<path fill="#474747" d="M12.085,10.687c-0.958,0-1.801,0.469-2.332,1.183l-4.134-2.54c0.132-0.332,0.21-0.693,0.21-1.072
	c0-0.365-0.075-0.713-0.198-1.035l4.191-2.495c0.534,0.667,1.345,1.102,2.264,1.102c1.61,0,2.915-1.305,2.915-2.915
	C15,1.305,13.695,0,12.085,0c-1.608,0-2.913,1.305-2.913,2.914c0,0.402,0.081,0.785,0.229,1.133L5.243,6.521
	C4.712,5.81,3.871,5.343,2.915,5.343C1.305,5.343,0,6.647,0,8.257s1.305,2.914,2.915,2.914c0.942,0,1.771-0.455,2.304-1.148
	l4.149,2.549c-0.121,0.32-0.196,0.664-0.196,1.027c0,1.61,1.305,2.915,2.913,2.915c1.61,0,2.915-1.305,2.915-2.915
	C15,11.989,13.695,10.687,12.085,10.687z"/>
</svg>
