<?xml version="1.0" encoding="utf-8"?>
<!-- Generator: Adobe Illustrator 16.0.0, SVG Export Plug-In . SVG Version: 6.00 Build 0)  -->
<!DOCTYPE svg PUBLIC "-//W3C//DTD SVG 1.1//EN" "http://www.w3.org/Graphics/SVG/1.1/DTD/svg11.dtd">
<svg version="1.1" id="Layer_1" xmlns="http://www.w3.org/2000/svg" xmlns:xlink="http://www.w3.org/1999/xlink" x="0px" y="0px"
	 width="180px" height="32.811px" viewBox="0 0 180 32.811" enable-background="new 0 0 180 32.811" xml:space="preserve">
<g>
	<g>
		<path fill="#4C5C65" d="M70.05,8.174c0.54,0.72,0.84,1.66,0.84,2.619c0,2.318-1.798,4.337-4.277,4.337
			c-2.458,0-4.257-2.019-4.257-4.337c0-0.959,0.28-1.899,0.799-2.619h-1.56V6.437h3.898V4.318h2.218v2.118h3.917v1.738H70.05z
			 M64.294,22.404V16.31h2.218v4.457h9.754v1.638H64.294z M66.613,8.275c-1.399,0-2.199,1.18-2.199,2.519
			c0,1.339,0.939,2.538,2.199,2.538c1.299,0,2.198-1.199,2.198-2.538C68.812,9.455,68.033,8.275,66.613,8.275z M75.907,11.792v5.896
			h-2.219V4.438h2.219v5.675h2.697v1.679H75.907z"/>
		<path fill="#4C5C65" d="M93.455,8.734c0,0.979-0.24,1.959-0.6,2.837h1.84v1.639h-6.336v2.778h4.916v6.396h-2.218v-4.736h-9.693
			v-1.66h4.836v-2.778h-6.396v-1.639h11.092c0.24-0.999,0.36-1.997,0.36-2.877V6.855H81.164V5.196h12.291V8.734z"/>
		<path fill="#4C5C65" d="M109.966,8.734c0,0.979-0.241,1.959-0.601,2.837h1.84v1.639h-6.336v2.778h4.916v6.396h-2.219v-4.736
			h-9.693v-1.66h4.836v-2.778h-6.395v-1.639h11.093c0.239-0.999,0.358-1.997,0.358-2.877V6.855H97.674V5.196h12.292V8.734z"/>
		<path fill="#4C5C65" d="M121.497,7.995c0.52,0.7,0.82,1.66,0.82,2.638c0,2.338-1.898,4.197-4.277,4.197
			c-2.358,0-4.258-1.818-4.258-4.197c0-1,0.261-1.958,0.8-2.638h-1.559V6.317h3.897v-2.04h2.218v2.04h3.918v1.678H121.497z
			 M125.074,22.385v-4.558h-9.373v-1.658h11.592v6.215H125.074z M118.04,8.095c-1.399,0-2.198,1.159-2.198,2.538
			c0,1.379,0.999,2.458,2.198,2.458c1.239,0,2.198-1.079,2.198-2.458C120.238,9.254,119.459,8.095,118.04,8.095z M127.334,11.373
			v3.798h-2.219V4.438h2.219v5.275h2.699v1.659H127.334z"/>
		<path fill="#4C5C65" d="M141.085,15.27c-1.838-0.56-3.617-2.199-4.677-4.317c-1.059,2.119-2.896,3.778-4.717,4.337l-0.859-1.339
			c3.258-1.579,4.217-4.396,4.416-6.896h-3.996V5.337h10.152v1.718h-3.857c0.201,2.5,1.18,5.317,4.458,6.896L141.085,15.27z
			 M134.29,22.404v-6.213h2.199v4.576h9.771v1.638H134.29z M143.684,17.688V4.438h2.219v13.25H143.684z"/>
		<path fill="#4C5C65" d="M148.301,15.27v-1.659h14.891v1.659H148.301z M159.654,7.355c0.439,0.559,0.698,1.299,0.698,1.959
			c0,1.857-1.679,3.498-4.577,3.498c-2.618,0-4.417-1.641-4.417-3.498c0-0.64,0.24-1.379,0.679-1.959H149.4V5.697h5.377V4.139h2.157
			v1.559h5.376v1.658H159.654z M155.775,23.084c-2.857,0-4.776-1.458-4.776-3.477c0-2.059,1.919-3.619,4.776-3.619
			c2.879,0,4.797,1.56,4.797,3.619C160.572,21.626,158.654,23.084,155.775,23.084z M155.775,17.748c-1.639,0-2.639,0.72-2.639,1.859
			c0,1.139,1,1.798,2.639,1.798c1.64,0,2.658-0.659,2.658-1.798C158.434,18.488,157.215,17.748,155.775,17.748z M155.855,7.474
			c-1.438,0-2.338,0.72-2.338,1.82c0,0.959,0.94,1.859,2.338,1.859c1.379,0,2.34-0.899,2.34-1.859
			C158.195,8.194,157.274,7.474,155.855,7.474z"/>
		<path fill="#4C5C65" d="M177.361,18.188v-1.18h-3.557v-1.517h3.557v-1.9c-0.619,0.36-1.938,0.92-3.717,0.92h-3.219v2.397h-2.197
			v-2.397h-3.638v-1.659h9.114c1.698,0,3.138-0.56,3.656-0.899V4.438h2.219v13.749H177.361z M169.888,11.872
			c-2.558,0-4.597-1.479-4.597-3.717c0-1.999,1.758-3.697,4.635-3.697c2.879,0,4.619,1.699,4.619,3.697
			C174.545,10.393,172.425,11.872,169.888,11.872z M169.926,6.077c-1.496,0-2.498,0.94-2.498,2.079c0,1.159,1.002,2.078,2.498,2.078
			c1.501,0,2.499-0.918,2.499-2.078C172.425,7.017,171.427,6.077,169.926,6.077z M167.428,22.404v-4.816h2.219v3.179H180v1.638
			H167.428z"/>
	</g>
	<g>
		<path fill="#BA8440" d="M37.019,7.203c-3.333-7.165-11.128-7.989-15.047-6.694c-7.196,2.384-8.175,8.135-8.311,10.079
			c-0.137,1.949,0.652,4.322,1.652,5.765c2.841,4.037,6.108,3.659,7.028,3.539c1.479-0.198,2.486-0.946,3.048-1.995
			c0.678-1.264,0.435-2.501-0.306-3.387c-0.195-0.232-1.157-1.16-1.385-1.653c-0.335-0.725-0.566-1.75-0.168-2.837
			c1.39-3.788,5.198-2.883,5.785-2.675c3.195,1.137,3.92,3.696,4.18,4.834c0.497,2.207-0.065,5.233-1.935,7.525
			c-1.273,1.562-3.156,2.914-5.933,3.322c-3.694,0.549-7.311-0.396-10.125-3.232c-1.39-1.396-1.936-2.525-2.058-2.525
			c-0.328,0.006,0.422,1.549,1.366,2.853c1.683,2.323,5.735,5.697,11.839,5.108c7.184-0.703,11.463-6.43,11.485-12.739
			c-0.005,0.151-0.013,0.304-0.02,0.458C38.293,9.994,37.312,7.835,37.019,7.203"/>
		<g>
			<path fill="#4C5C65" d="M9.05,13.275V6.343C6.207,6.079,2.862,5.496,0,4.246v28.565c7.309-2.221,14.514-3.271,24.689-3.452
				C16.008,29.12,9.05,22.013,9.05,13.275z"/>
			<path fill="#4C5C65" d="M41.69,13.275V6.343c2.973-0.157,5.915-0.854,9.05-2.098v28.565c-7.307-2.221-14.514-3.271-24.691-3.452
				C34.731,29.12,41.69,22.013,41.69,13.275z"/>
		</g>
	</g>
	<g>
		<path fill="#4C5C65" d="M61.75,25.291h4.837l-0.221,1h-1.603v5.037h-1.371v-5.037H61.75V25.291z"/>
		<path fill="#4C5C65" d="M67.266,26.354h1.106v1.928h1.591v-1.928h1.13v4.975h-1.13v-2.223h-1.591v2.223h-1.106V26.354z"/>
		<path fill="#4C5C65" d="M72.43,26.354h3.151l-0.143,0.811h-1.894v1.154h1.583v0.816H73.56v1.334h2.093v0.859H72.43V26.354z"/>
		<path fill="#4C5C65" d="M78.628,25.291h1.381v2.75l1.912-2.75h1.661l-2.144,2.797l2.385,3.24h-1.777l-2.037-3.158v3.158h-1.381
			V25.291z"/>
		<path fill="#4C5C65" d="M86.453,26.281c0.737,0,1.318,0.226,1.743,0.678c0.424,0.451,0.637,1.069,0.637,1.854
			c0,1.17-0.411,1.959-1.234,2.365c-0.313,0.152-0.682,0.229-1.106,0.229c-0.796,0-1.395-0.233-1.798-0.702
			c-0.424-0.492-0.637-1.109-0.637-1.85c0-0.541,0.109-1.016,0.326-1.424c0.218-0.408,0.525-0.711,0.923-0.906
			C85.636,26.363,86.018,26.281,86.453,26.281z M86.437,27.055c-0.397,0-0.684,0.146-0.859,0.438
			c-0.186,0.312-0.279,0.766-0.279,1.363c0,0.859,0.165,1.397,0.494,1.612c0.175,0.115,0.395,0.173,0.661,0.173
			c0.387,0,0.667-0.142,0.839-0.424c0.173-0.281,0.259-0.74,0.259-1.377c0-0.492-0.048-0.876-0.143-1.153
			c-0.054-0.157-0.151-0.294-0.295-0.409C86.928,27.13,86.703,27.055,86.437,27.055z"/>
		<path fill="#4C5C65" d="M89.739,26.354h2.062c0.488,0,0.88,0.133,1.178,0.4c0.297,0.268,0.445,0.621,0.445,1.059
			c0,0.373-0.121,0.693-0.361,0.963c-0.242,0.271-0.533,0.408-0.873,0.412c0.086,0.063,0.162,0.132,0.231,0.208
			c0.196,0.224,0.64,0.869,1.329,1.933h-1.313c-0.187-0.287-0.359-0.559-0.518-0.816c-0.287-0.465-0.482-0.77-0.59-0.918
			c-0.121-0.163-0.23-0.263-0.325-0.301c-0.059-0.025-0.117-0.039-0.175-0.043v2.078h-1.091V26.354z M90.83,27.148v1.348h0.374
			c0.424,0,0.704-0.057,0.843-0.172c0.138-0.114,0.207-0.279,0.207-0.494c0-0.277-0.104-0.467-0.311-0.566
			c-0.148-0.076-0.387-0.115-0.716-0.115H90.83z"/>
		<path fill="#4C5C65" d="M94.57,26.354h3.15l-0.143,0.81h-1.895v1.153h1.584v0.818H95.7v1.333h2.093v0.86H94.57V26.354z"/>
		<path fill="#4C5C65" d="M99.91,26.332h1.201l1.742,4.996h-1.193l-0.391-1.183h-1.623l-0.389,1.183h-1.162L99.91,26.332z
			 M99.918,29.314H101c-0.063-0.173-0.165-0.507-0.303-1.004c-0.037-0.145-0.111-0.438-0.223-0.883l-0.262,0.961
			C100.117,28.729,100.018,29.037,99.918,29.314z"/>
		<path fill="#4C5C65" d="M103.451,26.354h1.232l1.059,1.988c0.266,0.5,0.468,0.971,0.605,1.41c-0.053-0.525-0.082-0.98-0.088-1.367
			l-0.023-2.031h1.059v4.975h-1.162l-0.947-1.906c-0.408-0.828-0.658-1.372-0.748-1.635c0.026,0.281,0.045,0.752,0.056,1.412
			l0.032,2.129h-1.074V26.354z"/>
		<path fill="#4C5C65" d="M114.73,25.709l-0.637,0.87c-0.566-0.308-1.088-0.462-1.564-0.462c-0.276,0-0.502,0.066-0.676,0.196
			c-0.174,0.131-0.261,0.298-0.261,0.5c0,0.157,0.056,0.28,0.164,0.37c0.109,0.09,0.304,0.17,0.58,0.238l0.811,0.201
			c1.134,0.277,1.7,0.878,1.7,1.8c0,0.615-0.254,1.108-0.758,1.479c-0.506,0.371-1.178,0.557-2.014,0.557
			c-0.818,0-1.581-0.183-2.289-0.549l0.502-0.947c0.689,0.324,1.304,0.486,1.845,0.486c0.785,0,1.179-0.275,1.179-0.826
			c0-0.377-0.294-0.637-0.88-0.783l-0.743-0.182c-0.644-0.157-1.084-0.412-1.322-0.766c-0.188-0.278-0.281-0.586-0.281-0.922
			c0-0.551,0.225-1.001,0.672-1.349c0.447-0.349,1.025-0.522,1.733-0.522C113.359,25.1,114.107,25.303,114.73,25.709z"/>
		<path fill="#4C5C65" d="M115.37,26.354h3.987l-0.184,0.824h-1.32v4.15h-1.131v-4.15h-1.353V26.354z"/>
		<path fill="#4C5C65" d="M120.002,26.354h1.138v3.27c0,0.287,0.031,0.484,0.096,0.595c0.132,0.229,0.384,0.343,0.756,0.343
			c0.509,0,0.79-0.193,0.843-0.579c0.012-0.081,0.017-0.229,0.017-0.444v-3.184h1.13v3.35c0,0.363-0.029,0.623-0.088,0.781
			c-0.09,0.242-0.273,0.448-0.549,0.615c-0.345,0.215-0.787,0.322-1.329,0.322c-0.918,0-1.53-0.256-1.838-0.766
			c-0.116-0.188-0.175-0.467-0.175-0.838V26.354z"/>
		<path fill="#4C5C65" d="M125.285,26.354h1.115c0.376,0,0.697,0.01,0.963,0.027c0.477,0.034,0.88,0.199,1.209,0.494
			c0.504,0.449,0.756,1.109,0.756,1.983c0,0.702-0.184,1.274-0.549,1.718c-0.366,0.445-0.817,0.686-1.354,0.723
			c-0.275,0.02-0.541,0.029-0.795,0.029h-1.346V26.354z M126.416,27.135v3.377h0.596c0.712,0,1.067-0.521,1.067-1.563
			c0-0.655-0.093-1.121-0.278-1.397c-0.187-0.277-0.478-0.416-0.876-0.416H126.416z"/>
		<path fill="#4C5C65" d="M130.347,26.354h1.161v4.975h-1.161V26.354z"/>
		<path fill="#4C5C65" d="M132.846,26.354h3.151l-0.144,0.81h-1.894v1.153h1.583v0.818h-1.567v1.333h2.093v0.86h-3.223V26.354z"/>
		<path fill="#4C5C65" d="M140.668,26.697l-0.525,0.717c-0.467-0.254-0.896-0.38-1.289-0.38c-0.229,0-0.414,0.054-0.557,0.161
			c-0.144,0.107-0.215,0.245-0.215,0.412c0,0.129,0.045,0.23,0.135,0.305s0.25,0.141,0.478,0.197l0.669,0.165
			c0.934,0.229,1.4,0.724,1.4,1.483c0,0.508-0.209,0.914-0.625,1.219c-0.416,0.307-0.969,0.459-1.659,0.459
			c-0.674,0-1.302-0.15-1.886-0.451l0.414-0.781c0.567,0.268,1.074,0.401,1.52,0.401c0.646,0,0.971-0.228,0.971-0.681
			c0-0.312-0.242-0.526-0.725-0.646l-0.612-0.15c-0.53-0.129-0.895-0.339-1.091-0.631c-0.152-0.229-0.23-0.482-0.23-0.76
			c0-0.453,0.185-0.824,0.553-1.111c0.369-0.287,0.846-0.43,1.43-0.43C139.538,26.195,140.152,26.363,140.668,26.697z"/>
		<path fill="#4C5C65" d="M143.841,25.291h1.409v6.037h-1.409V25.291z"/>
		<path fill="#4C5C65" d="M146.729,26.354h1.233l1.059,1.988c0.266,0.5,0.467,0.971,0.605,1.41c-0.054-0.525-0.082-0.98-0.088-1.367
			l-0.023-2.031h1.058v4.975h-1.162l-0.946-1.906c-0.408-0.828-0.658-1.372-0.748-1.635c0.025,0.281,0.045,0.752,0.056,1.412
			l0.032,2.129h-1.075V26.354z"/>
		<path fill="#4C5C65" d="M155.468,26.697l-0.525,0.717c-0.467-0.254-0.896-0.38-1.289-0.38c-0.229,0-0.413,0.054-0.558,0.161
			c-0.143,0.107-0.215,0.245-0.215,0.412c0,0.129,0.046,0.23,0.136,0.305c0.091,0.074,0.249,0.141,0.478,0.197l0.668,0.165
			c0.934,0.229,1.401,0.724,1.401,1.483c0,0.508-0.208,0.914-0.625,1.219c-0.417,0.307-0.97,0.459-1.659,0.459
			c-0.674,0-1.303-0.15-1.887-0.451l0.414-0.781c0.568,0.268,1.074,0.401,1.521,0.401c0.647,0,0.972-0.228,0.972-0.681
			c0-0.312-0.242-0.526-0.725-0.646l-0.613-0.15c-0.53-0.129-0.895-0.339-1.09-0.631c-0.154-0.229-0.231-0.482-0.231-0.76
			c0-0.453,0.185-0.824,0.554-1.111c0.368-0.287,0.845-0.43,1.428-0.43C154.338,26.195,154.953,26.363,155.468,26.697z"/>
		<path fill="#4C5C65" d="M156.016,26.354h3.988l-0.184,0.824h-1.32v4.15h-1.131v-4.15h-1.354V26.354z"/>
		<path fill="#4C5C65" d="M160.68,26.354h1.162v4.975h-1.162V26.354z"/>
		<path fill="#4C5C65" d="M162.637,26.354h3.988l-0.184,0.824h-1.32v4.15h-1.131v-4.15h-1.354V26.354z"/>
		<path fill="#4C5C65" d="M167.27,26.354h1.137v3.27c0,0.287,0.032,0.484,0.096,0.595c0.133,0.229,0.385,0.343,0.756,0.343
			c0.51,0,0.791-0.193,0.844-0.579c0.011-0.081,0.016-0.229,0.016-0.444v-3.184h1.131v3.35c0,0.363-0.029,0.623-0.088,0.781
			c-0.09,0.242-0.273,0.448-0.549,0.615c-0.346,0.215-0.787,0.322-1.328,0.322c-0.919,0-1.531-0.256-1.839-0.766
			c-0.116-0.188-0.175-0.467-0.175-0.838V26.354z"/>
		<path fill="#4C5C65" d="M172.012,26.354h3.987l-0.184,0.824h-1.321v4.15h-1.129v-4.15h-1.354V26.354z"/>
		<path fill="#4C5C65" d="M176.675,26.354h3.151l-0.143,0.81h-1.895v1.153h1.584v0.818h-1.568v1.333h2.094v0.86h-3.224V26.354z"/>
	</g>
</g>
</svg>
