<?xml version="1.0" encoding="utf-8"?>
<!-- Generator: Adobe Illustrator 16.0.0, SVG Export Plug-In . SVG Version: 6.00 Build 0)  -->
<!DOCTYPE svg PUBLIC "-//W3C//DTD SVG 1.1//EN" "http://www.w3.org/Graphics/SVG/1.1/DTD/svg11.dtd">
<svg version="1.1" id="Layer_1" xmlns="http://www.w3.org/2000/svg" xmlns:xlink="http://www.w3.org/1999/xlink" x="0px" y="0px"
	 width="82px" height="30.575px" viewBox="0 0 82 30.575" enable-background="new 0 0 82 30.575" xml:space="preserve">
<g>
	
		<line fill="none" stroke="#231F20" stroke-width="2.559" stroke-linecap="round" stroke-linejoin="round" x1="51.308" y1="1.279" x2="51.308" y2="23.567"/>
	<path fill="#231F20" d="M79.287,0.383H2.713C1.215,0.383,0,1.598,0,3.099v20.334v7.143h81.999v-6.811c0.002-0.01,0-0.021,0-0.033
		V3.099C81.999,1.599,80.785,0.383,79.287,0.383 M1.137,3.099c0.001-0.874,0.707-1.579,1.576-1.58h76.574
		c0.87,0.001,1.575,0.706,1.577,1.58v20.064H1.137V3.099z"/>
	<path fill="#231F20" d="M62.03,17.812v0.215h0.794v0.654h-1.582v0.186h1.651v0.244h-2.021v-0.658h1.588v-0.184h-1.588v-0.242h0.785
		v-0.215h-1.115v-0.254h2.619v0.254H62.03z M62.266,17.019c0.062,0.029,0.132,0.055,0.206,0.076
		c0.086,0.023,0.178,0.043,0.272,0.055c0.095,0.014,0.187,0.025,0.274,0.033c-0.029,0.033-0.062,0.076-0.098,0.123
		c-0.037,0.051-0.067,0.094-0.094,0.131c-0.078-0.01-0.16-0.025-0.248-0.041c-0.09-0.018-0.178-0.041-0.264-0.068
		c-0.098-0.031-0.189-0.068-0.271-0.111c-0.083-0.045-0.146-0.096-0.193-0.15c-0.047,0.049-0.104,0.094-0.176,0.133
		c-0.07,0.039-0.15,0.074-0.235,0.104c-0.089,0.033-0.181,0.059-0.278,0.082c-0.097,0.02-0.195,0.039-0.293,0.053
		c-0.027-0.041-0.058-0.084-0.092-0.125c-0.035-0.041-0.07-0.084-0.106-0.129c0.099-0.008,0.194-0.02,0.289-0.035
		c0.095-0.014,0.182-0.031,0.264-0.053c0.083-0.023,0.153-0.051,0.216-0.082c0.061-0.031,0.107-0.066,0.139-0.107h-0.76v-0.238
		h2.055v0.238h-0.758C62.151,16.95,62.203,16.987,62.266,17.019 M61.295,16.284h1.103v0.236h-1.103V16.284z"/>
	<path fill="#231F20" d="M64.565,17.622c0.034,0.1,0.082,0.193,0.141,0.281c0.064,0.09,0.14,0.174,0.223,0.246
		c0.087,0.072,0.175,0.129,0.268,0.172c-0.046,0.041-0.09,0.082-0.129,0.125c-0.041,0.041-0.076,0.078-0.109,0.111
		c-0.06-0.037-0.119-0.08-0.178-0.129c-0.061-0.047-0.119-0.102-0.179-0.16c-0.049-0.053-0.097-0.113-0.144-0.178
		s-0.089-0.135-0.125-0.211c-0.033,0.076-0.073,0.148-0.121,0.219c-0.045,0.07-0.098,0.137-0.156,0.201
		c-0.052,0.061-0.111,0.115-0.175,0.168c-0.063,0.055-0.131,0.107-0.202,0.156c-0.033-0.031-0.076-0.068-0.127-0.109
		c-0.053-0.041-0.102-0.084-0.152-0.123c0.105-0.057,0.203-0.123,0.293-0.197c0.092-0.076,0.171-0.158,0.238-0.248
		c0.066-0.092,0.119-0.191,0.156-0.299s0.057-0.221,0.057-0.346v-0.115h-0.583V16.89h1.536v0.297h-0.583v0.115
		C64.514,17.413,64.532,17.519,64.565,17.622 M63.892,16.372h0.867v0.283h-0.867V16.372z M65.493,19.13v-1.389h-0.529v-0.295h0.529
		v-1.121h0.34v2.805H65.493z"/>
	<path fill="#231F20" d="M66.191,18.819v-0.295h0.618v-0.57h0.336v0.57h0.723v-0.572h0.329v0.572h0.62v0.295H66.191z M66.408,17.833
		V17.54h0.38l-0.01-0.795h-0.308V16.45h2.06v0.295h-0.314l-0.008,0.795h0.386v0.293H66.408z M67.13,17.54h0.744l0.01-0.795h-0.767
		L67.13,17.54z"/>
	<path fill="#231F20" d="M70.124,17.442c0.031,0.115,0.073,0.223,0.128,0.322c0.067,0.113,0.147,0.217,0.243,0.309
		c0.098,0.092,0.203,0.174,0.322,0.246c-0.048,0.041-0.096,0.08-0.141,0.121c-0.047,0.041-0.084,0.076-0.114,0.109
		c-0.054-0.035-0.112-0.082-0.174-0.135s-0.124-0.111-0.185-0.178c-0.063-0.066-0.119-0.139-0.17-0.215s-0.096-0.152-0.131-0.23
		c-0.021,0.072-0.055,0.146-0.105,0.225c-0.049,0.078-0.104,0.154-0.164,0.227c-0.063,0.076-0.13,0.146-0.2,0.211
		c-0.069,0.063-0.136,0.115-0.196,0.158c-0.033-0.031-0.076-0.068-0.131-0.111c-0.053-0.041-0.104-0.078-0.155-0.111
		c0.128-0.078,0.241-0.166,0.341-0.264c0.098-0.098,0.179-0.203,0.245-0.322c0.06-0.109,0.106-0.229,0.138-0.357
		c0.03-0.127,0.047-0.264,0.047-0.408v-0.6h0.354v0.619C70.075,17.196,70.093,17.325,70.124,17.442 M71.097,16.325h0.34v2.805h-0.34
		V16.325z"/>
	<path fill="#231F20" d="M73.169,4.252H59.229c-0.738,0-1.336,0.598-1.336,1.338v13.592c0,0.736,0.598,1.334,1.336,1.336h13.939
		c0.738-0.002,1.336-0.6,1.336-1.336V5.591C74.503,4.85,73.907,4.253,73.169,4.252 M73.169,19.968H59.229
		c-0.436,0-0.787-0.352-0.787-0.785v-3.612h15.514v3.612C73.956,19.616,73.604,19.968,73.169,19.968"/>
	<path fill="#FFFFFF" d="M69.399,12.489c-0.266-1.929-1.104-2.933-1.882-3.412c0.372-0.361,0.604-0.866,0.604-1.424
		c0-1.094-0.887-1.981-1.982-1.981c-1.094,0-1.98,0.887-1.98,1.981c0,0.558,0.234,1.063,0.605,1.424
		c-0.775,0.479-1.617,1.484-1.882,3.413c-0.042,0.277-0.062,0.534-0.062,0.773c0,0.233,0.02,0.45,0.058,0.653
		c0.052,0.262,0.282,0.45,0.548,0.45h5.43c0.268,0,0.497-0.19,0.547-0.454c0.037-0.199,0.058-0.415,0.058-0.649
		C69.461,13.024,69.439,12.767,69.399,12.489"/>
	<path fill="#231F20" d="M26.477,8.346c-0.252-0.45-0.597-0.814-1.025-1.077c-0.421-0.26-0.902-0.439-1.44-0.54
		c-0.527-0.098-1.076-0.147-1.645-0.147h-4.134c-0.065,0-0.13,0.027-0.178,0.074c-0.047,0.047-0.073,0.112-0.073,0.178v11.034
		c0,0.066,0.026,0.129,0.073,0.176c0.048,0.049,0.112,0.074,0.178,0.074h1.461c0.066,0,0.129-0.025,0.177-0.074
		c0.049-0.047,0.074-0.109,0.074-0.176v-4.161h2.521c1.386,0,2.476-0.295,3.245-0.921c0.771-0.627,1.151-1.566,1.148-2.732
		C26.859,9.384,26.738,8.81,26.477,8.346 M22.498,11.89h-2.553V8.399h2.504c0.347,0,0.675,0.024,0.982,0.071
		c0.293,0.045,0.543,0.13,0.756,0.254c0.202,0.12,0.358,0.28,0.481,0.496c0.112,0.202,0.18,0.489,0.18,0.868
		c0,0.314-0.045,0.579-0.128,0.801c-0.081,0.216-0.205,0.39-0.381,0.538c-0.175,0.146-0.409,0.262-0.71,0.342
		C23.329,11.849,22.95,11.891,22.498,11.89"/>
	<path fill="#231F20" d="M36.521,16.378c-0.047-0.049-0.112-0.074-0.179-0.074h-6.524v-3.241h5.847c0.068,0,0.131-0.026,0.18-0.074
		c0.047-0.046,0.073-0.11,0.073-0.178v-1.313c0-0.066-0.027-0.131-0.073-0.178c-0.048-0.047-0.112-0.074-0.18-0.074h-5.847V8.399
		h6.28c0.067,0,0.131-0.026,0.178-0.074c0.048-0.047,0.074-0.11,0.074-0.178V6.834c0-0.066-0.027-0.131-0.073-0.178
		c-0.047-0.047-0.113-0.074-0.179-0.074h-7.992c-0.067,0-0.13,0.027-0.178,0.074c-0.047,0.047-0.074,0.112-0.074,0.178v11.034
		c0,0.066,0.026,0.129,0.074,0.176c0.048,0.049,0.111,0.074,0.178,0.074h8.236c0.067,0,0.132-0.025,0.179-0.074
		c0.046-0.047,0.073-0.109,0.073-0.176v-1.314C36.594,16.489,36.566,16.423,36.521,16.378"/>
	<path fill="#231F20" d="M46.834,6.656c-0.047-0.047-0.112-0.074-0.179-0.074h-1.402c-0.064,0-0.131,0.027-0.179,0.074
		c-0.046,0.047-0.073,0.112-0.073,0.178v7.879l-5.302-8.018c-0.047-0.07-0.127-0.113-0.212-0.113H37.98
		c-0.067,0-0.132,0.027-0.179,0.074c-0.046,0.047-0.074,0.112-0.074,0.178v11.034c0,0.066,0.026,0.129,0.074,0.176
		c0.048,0.049,0.112,0.074,0.179,0.074h1.387c0.067,0,0.13-0.025,0.177-0.074c0.047-0.047,0.073-0.109,0.073-0.176V10l5.328,8.007
		c0.047,0.07,0.126,0.111,0.21,0.111h1.5c0.067,0,0.132-0.025,0.179-0.074c0.047-0.047,0.073-0.109,0.073-0.176V6.834
		C46.907,6.768,46.881,6.703,46.834,6.656"/>
	<path fill="#00B288" d="M10.367,7.584c2.273,0.003,4.151,1.673,4.485,3.854c0.775,0.112,1.41,0.313,1.917,0.536
		c-0.004-0.147-0.013-0.219-0.013-0.219l-0.002-0.002c-0.192-3.362-2.977-6.027-6.387-6.028c-3.381,0.001-6.146,2.622-6.381,5.942
		c0.012,0.219,0.122,0.634,0.744,0.939l-0.038-0.01c0.63,0.34,1.609,0.738,2.766,0.74c0.861,0,2.009-0.229,2.958-0.869
		c0.665-0.45,1.425-0.871,2.249-0.873c0.254-0.001,0.509,0.027,0.758,0.078c0.07,0.016,0.139,0.03,0.208,0.049
		c0,0,0.233,0.129,0.279-0.023c0.026-0.084,0-0.158-0.028-0.208c-0.08-0.135-0.287-0.267-0.417-0.351
		c-0.183-0.117-0.385-0.203-0.594-0.256c-0.481-0.125-0.998-0.089-1.48,0.008c-0.486,0.099-0.964,0.262-1.412,0.475
		c-0.775,0.368-1.59,0.505-2.086,0.505c-0.81-0.003-1.295-0.353-1.604-0.709c-0.11-0.129-0.194-0.259-0.256-0.372
		C6.605,8.936,8.325,7.587,10.367,7.584"/>
	<path fill="#231F20" d="M14.942,12.182c-0.004,0.135-0.014,0.243-0.018,0.293H14.92c-0.171,2.355-2.129,4.211-4.527,4.215
		c-1.958-0.004-3.56-1.082-4.193-2.805c-0.443-0.1-1.503-0.384-2.166-0.919c0,0.001-0.001,0.003-0.001,0.006
		c0.324,3.232,3.042,5.578,6.36,5.578c3.327,0,6.06-2.539,6.37-5.784C16.147,12.45,15.477,12.276,14.942,12.182"/>
	<path fill="#FFFFFF" d="M10.925,26.474H9.023v-0.799c0-0.008-0.003-0.018-0.009-0.023c-0.006-0.004-0.013-0.008-0.021-0.008H8.474
		c-0.008,0-0.016,0.004-0.021,0.008c-0.006,0.006-0.008,0.016-0.008,0.023v0.799H7.032c-0.009,0-0.016,0.004-0.021,0.01
		c-0.006,0.004-0.009,0.012-0.009,0.021v0.461c0,0.008,0.003,0.016,0.009,0.021s0.013,0.01,0.021,0.01h3.893
		c0.009,0,0.016-0.004,0.022-0.01c0.006-0.006,0.008-0.014,0.008-0.021v-0.461c0-0.01-0.002-0.018-0.008-0.021
		C10.941,26.478,10.934,26.474,10.925,26.474 M10.148,27.53c-0.275-0.172-0.668-0.256-1.178-0.256c-0.506,0-0.894,0.084-1.169,0.256
		c-0.274,0.17-0.417,0.396-0.416,0.67c-0.001,0.27,0.143,0.494,0.418,0.666c0.276,0.174,0.667,0.258,1.171,0.26
		c0.51-0.002,0.903-0.086,1.176-0.26c0.272-0.172,0.415-0.396,0.414-0.666C10.564,27.927,10.422,27.7,10.148,27.53 M9.685,28.534
		c-0.178,0.074-0.415,0.111-0.711,0.111c-0.303,0-0.54-0.037-0.712-0.111c-0.17-0.076-0.246-0.184-0.248-0.34
		c0.001-0.141,0.078-0.244,0.249-0.32c0.171-0.078,0.409-0.115,0.711-0.115c0.296,0,0.533,0.037,0.711,0.115
		c0.179,0.078,0.257,0.182,0.258,0.32C9.942,28.349,9.863,28.458,9.685,28.534 M7.448,25.228h2.518
		c-0.004,0.158-0.018,0.326-0.042,0.5c-0.024,0.188-0.051,0.35-0.079,0.49c-0.002,0.01,0,0.02,0.006,0.025
		c0.005,0.006,0.014,0.01,0.023,0.01l0.499,0.006c0.015,0,0.028-0.01,0.031-0.025c0.037-0.217,0.069-0.445,0.098-0.689
		c0.027-0.242,0.043-0.514,0.046-0.809c0-0.008-0.003-0.016-0.009-0.021c-0.006-0.006-0.013-0.008-0.021-0.008H7.448
		c-0.009,0-0.016,0.002-0.021,0.008c-0.006,0.006-0.009,0.014-0.009,0.021v0.461c0,0.008,0.004,0.016,0.009,0.023
		C7.432,25.224,7.439,25.228,7.448,25.228 M11.649,25.228h2.519c-0.005,0.158-0.018,0.326-0.042,0.5
		c-0.025,0.188-0.052,0.35-0.079,0.49c-0.003,0.01,0,0.02,0.005,0.025s0.015,0.01,0.023,0.01l0.5,0.006
		c0.014,0,0.027-0.01,0.03-0.025c0.037-0.217,0.07-0.445,0.099-0.689c0.028-0.242,0.043-0.514,0.047-0.809
		c0-0.008-0.003-0.016-0.01-0.021c-0.006-0.006-0.013-0.008-0.021-0.008h-3.072c-0.007,0-0.016,0.002-0.021,0.008
		c-0.007,0.006-0.01,0.014-0.01,0.021v0.461c0,0.008,0.003,0.016,0.01,0.023C11.633,25.224,11.642,25.228,11.649,25.228
		 M14.349,27.53c-0.275-0.172-0.667-0.256-1.177-0.256c-0.505,0-0.895,0.084-1.171,0.256c-0.272,0.17-0.416,0.396-0.414,0.67
		c0,0.27,0.143,0.494,0.417,0.666c0.276,0.174,0.667,0.258,1.172,0.26c0.509-0.002,0.902-0.086,1.176-0.26
		c0.273-0.172,0.414-0.396,0.414-0.666C14.766,27.927,14.624,27.7,14.349,27.53 M13.887,28.534
		c-0.178,0.074-0.415,0.111-0.711,0.111c-0.303,0-0.54-0.037-0.712-0.111c-0.17-0.076-0.246-0.184-0.248-0.34
		c0.001-0.141,0.078-0.244,0.248-0.32c0.172-0.078,0.409-0.115,0.712-0.115c0.296,0,0.533,0.037,0.711,0.115
		c0.177,0.078,0.256,0.182,0.257,0.32C14.144,28.349,14.064,28.458,13.887,28.534 M15.126,26.474h-1.902v-0.799
		c0-0.008-0.003-0.018-0.008-0.023c-0.005-0.004-0.014-0.008-0.021-0.008h-0.519c-0.008,0-0.016,0.004-0.021,0.008
		c-0.006,0.006-0.008,0.016-0.008,0.023v0.799h-1.413c-0.008,0-0.015,0.004-0.021,0.01c-0.006,0.004-0.009,0.012-0.009,0.021v0.461
		c0,0.008,0.003,0.016,0.009,0.021s0.013,0.01,0.021,0.01h3.893c0.008,0,0.017-0.004,0.022-0.01
		c0.005-0.006,0.009-0.014,0.009-0.021v-0.461c0-0.01-0.004-0.018-0.009-0.021C15.143,26.478,15.134,26.474,15.126,26.474
		 M15.911,26.524h3.026c0.008,0,0.016-0.004,0.021-0.008c0.006-0.006,0.009-0.014,0.009-0.023v-0.461
		c0-0.008-0.003-0.016-0.008-0.021c-0.006-0.006-0.014-0.01-0.022-0.01h-2.5v-1.256c0-0.008-0.003-0.016-0.009-0.021
		c-0.006-0.006-0.013-0.01-0.021-0.01h-0.496c-0.008,0-0.014,0.004-0.021,0.01s-0.009,0.014-0.009,0.021v1.748
		c0,0.01,0.002,0.018,0.009,0.023C15.896,26.521,15.903,26.524,15.911,26.524 M19.329,27.015h-3.894
		c-0.008,0-0.016,0.002-0.022,0.008s-0.009,0.014-0.009,0.023v0.457c0,0.008,0.003,0.014,0.009,0.02s0.014,0.01,0.022,0.01H17.1
		v1.479c0,0.008,0.003,0.016,0.009,0.021s0.013,0.01,0.021,0.01h0.514c0.008,0,0.016-0.004,0.021-0.01s0.009-0.014,0.009-0.021
		v-1.479h1.656c0.007,0,0.015-0.004,0.021-0.01s0.009-0.012,0.009-0.02v-0.457c0-0.01-0.003-0.018-0.009-0.023
		C19.344,27.019,19.336,27.015,19.329,27.015 M22.47,27.364c-0.137,0.023-0.344,0.051-0.622,0.084
		c-0.278,0.031-0.522,0.049-0.731,0.049h-0.62v-0.834h1.422c0.009,0,0.016-0.004,0.021-0.01c0.005-0.006,0.009-0.014,0.009-0.021
		v-1.783c0-0.01-0.003-0.016-0.009-0.021c-0.006-0.006-0.014-0.01-0.021-0.01h-1.951c-0.009,0-0.016,0.004-0.022,0.01
		s-0.009,0.012-0.009,0.021v0.463c0,0.006,0.003,0.014,0.009,0.02s0.013,0.01,0.022,0.01h1.421v0.809h-1.421
		c-0.009,0-0.016,0.004-0.022,0.008c-0.006,0.006-0.009,0.014-0.009,0.021v1.818c0,0.01,0.003,0.018,0.009,0.023
		c0.006,0.004,0.013,0.008,0.022,0.008c0.002,0,0.153-0.002,0.453-0.006c0.298-0.002,0.484-0.004,0.555-0.004
		c0.275-0.006,0.558-0.025,0.851-0.057c0.291-0.031,0.508-0.059,0.653-0.082c0.015-0.002,0.026-0.014,0.026-0.029v-0.457
		c0-0.01-0.005-0.018-0.011-0.023C22.488,27.364,22.479,27.362,22.47,27.364 M23.201,24.601c-0.005-0.006-0.013-0.01-0.021-0.01
		h-0.504c-0.007,0-0.016,0.004-0.02,0.01c-0.006,0.006-0.01,0.014-0.01,0.021v4.389c0,0.008,0.004,0.016,0.01,0.021
		c0.004,0.006,0.013,0.01,0.02,0.01h0.504c0.009,0,0.015-0.004,0.021-0.01c0.006-0.006,0.009-0.014,0.009-0.021v-4.389
		C23.21,24.614,23.207,24.606,23.201,24.601"/>
	<path fill="#FFFFFF" d="M27.015,26.827v-0.313h1.509v-0.826h0.399v0.826h2.007v0.313H27.015z M27.833,28.528
		c-0.267-0.15-0.399-0.336-0.399-0.559c0-0.227,0.133-0.414,0.399-0.561c0.267-0.148,0.646-0.223,1.137-0.223
		c0.496,0,0.876,0.074,1.14,0.223c0.265,0.146,0.397,0.334,0.397,0.561c0,0.223-0.132,0.408-0.397,0.559
		c-0.264,0.15-0.645,0.227-1.14,0.227C28.478,28.755,28.1,28.679,27.833,28.528 M30.489,24.88c-0.002,0.25-0.021,0.49-0.057,0.725
		c-0.034,0.234-0.073,0.445-0.117,0.629h-0.376c0.034-0.141,0.066-0.309,0.093-0.502c0.03-0.195,0.044-0.375,0.047-0.539h-2.608
		V24.88H30.489z M28.167,28.335c0.203,0.084,0.471,0.125,0.803,0.125c0.329,0,0.597-0.041,0.802-0.125
		c0.205-0.082,0.307-0.205,0.307-0.371c0-0.158-0.102-0.277-0.307-0.359c-0.206-0.082-0.473-0.123-0.802-0.123
		c-0.332,0-0.6,0.041-0.803,0.123c-0.204,0.082-0.306,0.201-0.306,0.359C27.861,28.13,27.963,28.253,28.167,28.335"/>
	<path fill="#FFFFFF" d="M31.245,26.827v-0.313h1.51v-0.826h0.399v0.826h2.008v0.313H31.245z M32.064,28.528
		c-0.268-0.15-0.401-0.336-0.401-0.559c0-0.227,0.134-0.414,0.401-0.561c0.266-0.148,0.645-0.223,1.137-0.223
		c0.495,0,0.875,0.074,1.139,0.223c0.265,0.146,0.398,0.334,0.398,0.561c0,0.223-0.133,0.408-0.398,0.559
		c-0.265,0.15-0.645,0.227-1.139,0.227C32.709,28.755,32.33,28.679,32.064,28.528 M34.72,24.88c-0.003,0.25-0.022,0.49-0.057,0.725
		c-0.035,0.234-0.073,0.445-0.118,0.629h-0.376c0.035-0.141,0.067-0.309,0.094-0.502c0.03-0.195,0.045-0.375,0.048-0.539h-2.609
		V24.88H34.72z M32.398,28.335c0.204,0.084,0.471,0.125,0.804,0.125c0.329,0,0.595-0.041,0.802-0.125
		c0.204-0.082,0.307-0.205,0.307-0.371c0-0.158-0.103-0.277-0.307-0.359c-0.208-0.082-0.474-0.123-0.802-0.123
		c-0.333,0-0.6,0.041-0.804,0.123c-0.205,0.082-0.306,0.201-0.306,0.359C32.092,28.13,32.193,28.253,32.398,28.335"/>
	<path fill="#FFFFFF" d="M37.184,26.259c0.046,0.174,0.116,0.334,0.207,0.484c0.096,0.16,0.22,0.309,0.371,0.441
		c0.151,0.133,0.325,0.256,0.527,0.367c-0.05,0.035-0.104,0.076-0.158,0.127c-0.055,0.051-0.101,0.092-0.138,0.133
		c-0.107-0.066-0.213-0.139-0.313-0.221c-0.103-0.084-0.199-0.17-0.289-0.264c-0.104-0.107-0.197-0.225-0.28-0.346
		c-0.083-0.119-0.152-0.246-0.204-0.375c-0.037,0.119-0.093,0.242-0.168,0.365c-0.072,0.121-0.158,0.24-0.255,0.355
		c-0.097,0.117-0.203,0.227-0.317,0.328c-0.114,0.104-0.227,0.191-0.336,0.26c-0.04-0.037-0.093-0.078-0.159-0.123
		c-0.065-0.047-0.13-0.088-0.193-0.127c0.194-0.111,0.369-0.236,0.525-0.381c0.155-0.141,0.282-0.297,0.382-0.467
		c0.104-0.17,0.183-0.352,0.238-0.549c0.055-0.195,0.082-0.406,0.082-0.629v-0.314h-0.912v-0.313h2.251v0.313h-0.931v0.373
		C37.112,25.896,37.137,26.083,37.184,26.259 M38.73,28.675v-2.332h-0.902v-0.328h0.902v-1.248h0.399v3.908H38.73z"/>
	<path fill="#FFFFFF" d="M41.367,25.788c0.056,0.123,0.134,0.236,0.23,0.34c0.1,0.109,0.22,0.201,0.359,0.281
		c0.139,0.08,0.283,0.141,0.431,0.189c-0.047,0.041-0.094,0.086-0.142,0.135c-0.047,0.051-0.087,0.094-0.117,0.133
		c-0.096-0.039-0.195-0.088-0.303-0.146c-0.108-0.057-0.213-0.127-0.313-0.205c-0.088-0.068-0.169-0.141-0.245-0.219
		c-0.075-0.08-0.14-0.164-0.193-0.256c-0.035,0.092-0.085,0.18-0.15,0.264c-0.066,0.088-0.139,0.17-0.221,0.246
		c-0.097,0.088-0.204,0.168-0.322,0.242c-0.119,0.072-0.236,0.139-0.356,0.193c-0.034-0.033-0.081-0.072-0.143-0.119
		c-0.061-0.047-0.119-0.09-0.172-0.127c0.176-0.07,0.339-0.154,0.494-0.254c0.154-0.098,0.283-0.215,0.391-0.35
		c0.084-0.105,0.151-0.223,0.2-0.354c0.049-0.127,0.073-0.271,0.073-0.424v-0.102h-0.842v-0.311h2.092v0.311h-0.836v0.115
		C41.283,25.524,41.311,25.663,41.367,25.788 M42.797,28.702V27.62h-2.397v-0.314h2.787v1.396H42.797z M43.187,26.015v1.105h-0.39
		v-2.354h0.39v0.922h0.592v0.326H43.187z"/>
	<path fill="#FFFFFF" d="M46.091,26.669v0.396h1.243v0.916h-2.44v0.373h2.534v0.285h-2.967v-0.934h2.444v-0.354h-2.444v-0.287h1.227
		v-0.396h-1.748v-0.295h3.915v0.295H46.091z M44.451,24.876h2.886v1.17h-2.886V24.876z M46.952,25.165h-2.12v0.59h2.12V25.165z"/>
	<path fill="#FFFFFF" d="M51.196,26.259c0.049,0.174,0.117,0.336,0.207,0.484c0.102,0.16,0.225,0.309,0.373,0.441
		c0.15,0.133,0.327,0.256,0.529,0.367c-0.05,0.035-0.102,0.078-0.156,0.129c-0.055,0.049-0.102,0.092-0.139,0.131
		c-0.106-0.064-0.212-0.139-0.315-0.221c-0.103-0.08-0.2-0.168-0.292-0.264c-0.102-0.107-0.195-0.223-0.279-0.344
		c-0.084-0.123-0.15-0.248-0.205-0.375c-0.033,0.117-0.088,0.24-0.163,0.363c-0.077,0.123-0.161,0.242-0.259,0.355
		c-0.098,0.117-0.203,0.229-0.314,0.33c-0.114,0.104-0.225,0.188-0.335,0.26c-0.044-0.039-0.099-0.08-0.162-0.127
		c-0.064-0.045-0.129-0.086-0.195-0.123c0.198-0.111,0.372-0.238,0.522-0.379s0.278-0.295,0.385-0.467
		c0.104-0.166,0.184-0.354,0.238-0.549c0.055-0.199,0.082-0.408,0.082-0.633v-0.314h-0.907v-0.313h2.251v0.313h-0.934v0.373
		C51.128,25.897,51.149,26.083,51.196,26.259 M52.979,24.767v1.516h0.629v0.33h-0.629v2.068h-0.396v-3.914H52.979z"/>
	<path fill="#FFFFFF" d="M56.698,27.304v1.373h-0.4v-1.373h-1.039v1.342H54.86v-1.334h-1.05v-0.322h3.917v0.314H56.698z
		 M54.655,26.347c-0.271-0.174-0.406-0.385-0.406-0.641s0.134-0.469,0.404-0.645c0.27-0.172,0.641-0.26,1.113-0.26
		c0.477,0,0.85,0.088,1.119,0.26c0.27,0.174,0.404,0.387,0.404,0.645c0,0.252-0.135,0.465-0.404,0.637s-0.643,0.26-1.119,0.26
		C55.297,26.603,54.926,26.519,54.655,26.347 M54.979,26.126c0.212,0.105,0.473,0.156,0.787,0.156c0.313,0,0.574-0.051,0.784-0.152
		c0.208-0.102,0.312-0.238,0.312-0.414c0-0.186-0.104-0.33-0.311-0.434c-0.205-0.107-0.469-0.16-0.785-0.16s-0.58,0.053-0.789,0.156
		c-0.211,0.104-0.314,0.246-0.314,0.428C54.663,25.882,54.769,26.022,54.979,26.126"/>
	<path fill="#FFFFFF" d="M58.604,25.235c0.221-0.238,0.459-0.354,0.717-0.354c0.264,0,0.503,0.115,0.719,0.355
		c0.217,0.236,0.324,0.613,0.324,1.129c0,0.506-0.105,0.879-0.32,1.125c-0.213,0.244-0.454,0.363-0.723,0.363
		c-0.267,0-0.509-0.119-0.725-0.361c-0.217-0.242-0.324-0.619-0.324-1.127C58.272,25.849,58.382,25.47,58.604,25.235 M58.832,27.175
		c0.116,0.236,0.28,0.354,0.493,0.354s0.375-0.117,0.484-0.354c0.109-0.232,0.164-0.504,0.164-0.813
		c0-0.299-0.055-0.566-0.164-0.805c-0.109-0.234-0.271-0.352-0.484-0.352s-0.377,0.119-0.493,0.355
		c-0.116,0.238-0.175,0.504-0.175,0.801C58.657,26.671,58.716,26.942,58.832,27.175 M61.205,24.767h0.396v3.91h-0.396V24.767z"/>
	<path fill="#FFFFFF" d="M62.272,26.997v-0.311h1.068v-0.578c-0.201-0.068-0.354-0.158-0.457-0.268s-0.154-0.23-0.154-0.357
		c0-0.209,0.131-0.385,0.392-0.529c0.263-0.143,0.63-0.213,1.103-0.213c0.484,0,0.856,0.072,1.119,0.219
		c0.264,0.146,0.395,0.324,0.395,0.531c0,0.127-0.05,0.242-0.152,0.352c-0.102,0.109-0.252,0.197-0.453,0.266v0.578h1.058v0.311
		H62.272z M63.093,27.495c0.266-0.135,0.644-0.203,1.137-0.203c0.494,0,0.874,0.07,1.138,0.209c0.263,0.139,0.396,0.314,0.396,0.525
		c0,0.205-0.133,0.377-0.394,0.52c-0.263,0.139-0.642,0.209-1.14,0.209c-0.493,0-0.871-0.07-1.137-0.209
		c-0.265-0.143-0.396-0.316-0.396-0.523C62.696,27.808,62.828,27.634,63.093,27.495 M63.432,28.353
		c0.199,0.078,0.466,0.117,0.798,0.117c0.325,0,0.59-0.039,0.789-0.117c0.201-0.08,0.301-0.188,0.301-0.326
		c0-0.146-0.1-0.26-0.301-0.338c-0.199-0.08-0.464-0.119-0.789-0.119c-0.332,0-0.599,0.039-0.798,0.119
		c-0.198,0.078-0.298,0.189-0.298,0.334C63.134,28.161,63.233,28.272,63.432,28.353 M63.446,25.81
		c0.195,0.088,0.455,0.131,0.777,0.131c0.321,0,0.581-0.041,0.783-0.127c0.202-0.082,0.303-0.191,0.303-0.326
		c0-0.139-0.101-0.25-0.303-0.336s-0.462-0.131-0.783-0.131c-0.318,0-0.578,0.041-0.775,0.127c-0.197,0.082-0.295,0.193-0.295,0.33
		C63.153,25.612,63.251,25.724,63.446,25.81 M64.746,26.185c-0.075,0.016-0.157,0.027-0.247,0.035
		c-0.089,0.006-0.18,0.01-0.275,0.01c-0.087,0-0.174-0.004-0.26-0.01c-0.086-0.008-0.164-0.018-0.232-0.029v0.496h1.015V26.185z"/>
	<path fill="#FFFFFF" d="M66.72,25.491h2.441v0.318H66.72V25.491z M67.177,26.376c0.197-0.186,0.456-0.277,0.775-0.277
		c0.307,0,0.561,0.092,0.76,0.277c0.197,0.186,0.299,0.406,0.299,0.658c0,0.244-0.102,0.463-0.299,0.66
		c-0.199,0.191-0.453,0.289-0.76,0.289c-0.313,0-0.57-0.096-0.771-0.287c-0.2-0.189-0.301-0.41-0.301-0.662
		S66.979,26.562,67.177,26.376 M67.464,27.483c0.115,0.121,0.277,0.184,0.488,0.184c0.203,0,0.363-0.063,0.479-0.186
		s0.175-0.271,0.175-0.447c0-0.174-0.059-0.322-0.175-0.441c-0.116-0.123-0.276-0.184-0.479-0.184c-0.211,0-0.373,0.061-0.488,0.184
		c-0.117,0.119-0.174,0.268-0.174,0.441C67.29,27.212,67.347,27.362,67.464,27.483 M67.309,24.854h1.269v0.307h-1.269V24.854z
		 M69.796,28.677v-1.943h-0.701v-0.33h0.701v-1.637h0.395v3.91H69.796z"/>
	<path fill="#FFFFFF" d="M73.575,26.833c-0.15,0.023-0.379,0.053-0.684,0.082c-0.307,0.029-0.582,0.047-0.83,0.053
		c-0.162,0.004-0.377,0.006-0.642,0.008c-0.265,0.004-0.403,0.004-0.415,0.004v-1.207h1.551V25.22h-1.551v-0.309h1.936v1.16h-1.557
		v0.592l0.725-0.006c0.193-0.002,0.447-0.021,0.756-0.049c0.311-0.025,0.549-0.057,0.711-0.084V26.833z M73.754,28.702v-1.008H71.36
		v-0.318h2.799v1.326H73.754z M74.159,26.019v1.174h-0.396v-2.426h0.396v0.932h0.578v0.32H74.159z"/>
</g>
</svg>
