<?xml version="1.0" encoding="utf-8"?>
<!-- Generator: Adobe Illustrator 14.0.0, SVG Export Plug-In . SVG Version: 6.00 Build 43363)  -->
<!DOCTYPE svg PUBLIC "-//W3C//DTD SVG 1.1//EN" "http://www.w3.org/Graphics/SVG/1.1/DTD/svg11.dtd">
<svg version="1.1" id="레이어_1" xmlns="http://www.w3.org/2000/svg" xmlns:xlink="http://www.w3.org/1999/xlink" x="0px"
	 y="0px" width="30px" height="30px" viewBox="0 0 30 30" enable-background="new 0 0 30 30" xml:space="preserve">
<g>
	<path fill-rule="evenodd" clip-rule="evenodd" fill="#FDE607" d="M30,15C30,23.284,23.284,30,15,30C6.716,30,0,23.284,0,15
		S6.716,0,15,0C23.284,0,30,6.716,30,15"/>
	<path fill="#010101" d="M25.079,11.518c-0.591-1.393-1.563-2.491-2.771-3.382c-1.82-1.342-3.885-2.031-6.122-2.235
		c-1.19-0.107-2.375-0.057-3.55,0.156c-1.577,0.284-3.057,0.829-4.406,1.706c-1.263,0.821-2.308,1.855-3.033,3.19
		c-0.743,1.361-1.014,2.813-0.773,4.347c0.208,1.342,0.792,2.517,1.656,3.556c0.876,1.054,1.948,1.854,3.165,2.471
		c0.081,0.04,0.089,0.078,0.065,0.155c-0.256,0.891-0.511,1.784-0.765,2.675c-0.101,0.353-0.208,0.703-0.285,1.063
		c-0.042,0.205,0.079,0.326,0.284,0.298c0.066-0.008,0.128-0.03,0.185-0.062c0.161-0.093,0.325-0.183,0.481-0.282
		c1.289-0.815,2.538-1.692,3.785-2.567c0.083-0.058,0.155-0.077,0.253-0.063c0.628,0.089,1.261,0.119,1.897,0.113
		c0.696-0.005,1.389-0.066,2.076-0.181c1.445-0.24,2.811-0.705,4.081-1.441c1.33-0.771,2.459-1.758,3.269-3.076
		C25.827,15.904,26.026,13.748,25.079,11.518z M9.722,13.054c0.001,1.162,0.001,2.325,0,3.487c0,0.31-0.154,0.534-0.421,0.619
		c-0.41,0.128-0.809-0.156-0.812-0.586c-0.003-0.586,0-1.173,0-1.759c0-0.584-0.002-1.166,0.001-1.749
		c0.001-0.092-0.015-0.126-0.118-0.124c-0.272,0.009-0.547,0.005-0.82,0.003c-0.357-0.003-0.623-0.254-0.625-0.592
		c-0.002-0.344,0.26-0.61,0.62-0.612c1.039-0.002,2.077-0.002,3.114,0c0.328,0.001,0.585,0.231,0.618,0.535
		c0.032,0.301-0.155,0.571-0.449,0.651c-0.061,0.018-0.124,0.018-0.183,0.018c-0.275,0.001-0.548,0.004-0.82-0.003
		C9.738,12.941,9.72,12.972,9.722,13.054z M14.842,17.116c-0.125,0.045-0.252,0.073-0.385,0.064
		c-0.245-0.015-0.428-0.109-0.51-0.365c-0.065-0.207-0.158-0.407-0.23-0.612c-0.022-0.067-0.053-0.094-0.128-0.092
		c-0.281,0.005-0.562,0.001-0.843,0.001c-0.285,0-0.569,0.002-0.853-0.001c-0.065-0.001-0.096,0.019-0.119,0.08
		c-0.073,0.203-0.151,0.403-0.228,0.603c-0.117,0.308-0.334,0.433-0.666,0.383c-0.43-0.063-0.579-0.283-0.488-0.724
		c0.058-0.275,0.178-0.53,0.275-0.792c0.417-1.099,0.833-2.196,1.25-3.293c0.124-0.321,0.349-0.537,0.69-0.605
		c0.386-0.078,0.792,0.171,0.949,0.574c0.23,0.6,0.458,1.203,0.687,1.804c0.256,0.676,0.515,1.351,0.771,2.029
		c0.07,0.187,0.116,0.382,0.098,0.586C15.097,16.93,15.013,17.054,14.842,17.116z M18.05,17.094c-0.692,0.009-1.385,0.008-2.078,0
		c-0.3-0.004-0.535-0.264-0.535-0.569c-0.002-0.695,0-1.391,0-2.087c0-0.692-0.002-1.383,0-2.076
		c0.001-0.325,0.233-0.574,0.565-0.617c0.296-0.036,0.587,0.167,0.669,0.463c0.02,0.075,0.018,0.151,0.018,0.229
		c0,1.139,0.002,2.28-0.002,3.42c0,0.098,0.025,0.12,0.121,0.119c0.401-0.005,0.801-0.005,1.203,0
		c0.312,0.003,0.564,0.239,0.576,0.529C18.601,16.813,18.36,17.09,18.05,17.094z M22.616,17.007
		c-0.273,0.244-0.679,0.205-0.906-0.094c-0.429-0.561-0.853-1.127-1.278-1.691c-0.011-0.014-0.02-0.031-0.032-0.044
		c-0.05-0.046-0.065-0.144-0.143-0.146c-0.06-0.005-0.2,0.214-0.2,0.285c-0.001,0.423,0.002,0.846-0.002,1.269
		c-0.005,0.295-0.212,0.527-0.507,0.585C19.28,17.223,19,17.075,18.885,16.82c-0.04-0.084-0.058-0.173-0.058-0.265
		c0-1.396,0-2.792,0.001-4.188c0-0.35,0.271-0.623,0.611-0.625s0.612,0.27,0.615,0.621c0.005,0.4,0.001,0.801,0.001,1.203v0.083
		l0.037,0.027c0.024-0.034,0.042-0.07,0.07-0.098c0.525-0.526,1.05-1.052,1.578-1.577c0.196-0.199,0.44-0.229,0.674-0.086
		c0.238,0.143,0.356,0.42,0.285,0.664c-0.026,0.094-0.086,0.167-0.154,0.235c-0.431,0.43-0.859,0.861-1.292,1.29
		c-0.061,0.059-0.058,0.094-0.011,0.156c0.482,0.632,0.959,1.266,1.438,1.902C22.889,16.438,22.86,16.792,22.616,17.007z"/>
	<path fill="#010101" d="M12.746,13.279c0.21,0.596,0.41,1.164,0.612,1.742h-0.774c-0.12,0-0.241-0.004-0.361,0.001
		c-0.077,0.005-0.09-0.015-0.063-0.089c0.157-0.441,0.313-0.884,0.469-1.326C12.664,13.509,12.699,13.41,12.746,13.279"/>
</g>
</svg>
